<svg width="196" height="46" viewBox="0 0 196 46" fill="none" xmlns="http://www.w3.org/2000/svg">
<rect width="46" height="46" rx="3" fill="white"/>
<path d="M8.68848 35V32.4365L10.959 31.9971V16.6895L8.68848 16.25V13.6719H17.2871L23.1025 28.54H23.1904L28.8154 13.6719H37.4287V16.25L35.1436 16.6895V31.9971L37.4287 32.4365V35H28.5957V32.4365L30.9834 31.9971V27.9102L31.0566 18.2861L30.9688 18.2715L24.5967 34.707H21.3594L14.8408 18.4033L14.7529 18.418L15.002 27.4707V31.9971L17.5215 32.4365V35H8.68848Z" fill="black"/>
<path d="M56.8203 35V32.4365L59.0908 31.9971V16.6895L56.8203 16.25V13.6719H65.4189L71.2344 28.54H71.3223L76.9473 13.6719H85.5605V16.25L83.2754 16.6895V31.9971L85.5605 32.4365V35H76.7275V32.4365L79.1152 31.9971V27.9102L79.1885 18.2861L79.1006 18.2715L72.7285 34.707H69.4912L62.9727 18.4033L62.8848 18.418L63.1338 27.4707V31.9971L65.6533 32.4365V35H56.8203ZM94.1744 35.3076C92.651 35.3076 91.3229 34.9756 90.19 34.3115C89.067 33.6377 88.193 32.7148 87.568 31.543C86.9527 30.3711 86.6451 29.0332 86.6451 27.5293V26.9434C86.6451 25.3711 86.9381 23.9795 87.524 22.7686C88.11 21.5479 88.9352 20.5908 89.9996 19.8975C91.0738 19.1943 92.3385 18.8477 93.7936 18.8574C95.9322 18.8574 97.568 19.4873 98.7008 20.7471C99.8336 21.9971 100.4 23.7549 100.4 26.0205V28.3496H91.0836L91.0543 28.4375C91.1324 29.4824 91.4791 30.3418 92.0943 31.0156C92.7096 31.6895 93.5836 32.0264 94.7164 32.0264C95.4977 32.0264 96.2252 31.9287 96.899 31.7334C97.5826 31.5283 98.2467 31.2305 98.8912 30.8398L100.048 33.4766C99.3941 34.0039 98.5689 34.4434 97.5729 34.7949C96.5865 35.1367 95.4537 35.3076 94.1744 35.3076ZM91.1129 25.5225H96.401V25.1416C96.401 24.1846 96.2008 23.4277 95.8004 22.8711C95.4098 22.3047 94.7652 22.0215 93.8668 22.0215C93.0074 22.0215 92.3531 22.3486 91.9039 23.0029C91.4547 23.6475 91.1764 24.4629 91.0689 25.4492L91.1129 25.5225ZM108.003 35.3076C106.529 35.3076 105.391 34.9023 104.59 34.0918C103.799 33.2812 103.404 31.9971 103.404 30.2393V22.1533H101.221V19.1504H103.404V15.2686H107.666V19.1504H110.581V22.1533H107.666V30.2246C107.666 30.8398 107.793 31.2793 108.047 31.543C108.311 31.8066 108.667 31.9385 109.116 31.9385C109.351 31.9385 109.605 31.9238 109.878 31.8945C110.152 31.8555 110.386 31.8164 110.581 31.7773L110.947 34.8682C110.518 34.9951 110.044 35.0977 109.527 35.1758C109.009 35.2637 108.501 35.3076 108.003 35.3076ZM117.262 35.3076C115.689 35.3076 114.439 34.8877 113.512 34.0479C112.584 33.1982 112.12 32.0459 112.12 30.5908C112.12 29.1064 112.721 27.8955 113.922 26.958C115.133 26.0205 116.91 25.5518 119.254 25.5518H121.348V24.3799C121.348 23.6182 121.124 23.0029 120.675 22.5342C120.235 22.0557 119.571 21.8164 118.682 21.8164C118.223 21.8164 117.808 21.875 117.437 21.9922C117.076 22.0996 116.749 22.2559 116.456 22.4609L116.119 24.5557H113.043L112.984 20.4395C113.814 19.9707 114.713 19.5898 115.679 19.2969C116.646 19.0039 117.725 18.8574 118.917 18.8574C120.987 18.8574 122.623 19.3408 123.824 20.3076C125.025 21.2744 125.626 22.6465 125.626 24.4238V30.957C125.626 31.1719 125.626 31.3818 125.626 31.5869C125.636 31.792 125.655 31.9971 125.684 32.2021L127.34 32.4365V35H122.037C121.929 34.7266 121.822 34.4336 121.715 34.1211C121.607 33.8086 121.529 33.4961 121.48 33.1836C120.972 33.8281 120.372 34.3457 119.679 34.7363C118.995 35.1172 118.189 35.3076 117.262 35.3076ZM118.404 32.1436C119 32.1436 119.561 32.0117 120.089 31.748C120.626 31.4746 121.046 31.1182 121.348 30.6787V28.1738H119.239C118.302 28.1738 117.589 28.3887 117.1 28.8184C116.622 29.248 116.383 29.7656 116.383 30.3711C116.383 30.9375 116.558 31.377 116.91 31.6895C117.271 31.9922 117.769 32.1436 118.404 32.1436ZM134.914 35V32.4365L137.185 31.9971V16.6895L134.914 16.25V13.6719H144.392C146.901 13.6719 148.859 14.1602 150.266 15.1367C151.672 16.1133 152.375 17.5732 152.375 19.5166C152.375 20.5029 152.111 21.3867 151.584 22.168C151.066 22.9395 150.31 23.5205 149.313 23.9111C150.593 24.1846 151.55 24.7705 152.185 25.6689C152.829 26.5674 153.151 27.6074 153.151 28.7891C153.151 30.8301 152.478 32.3779 151.13 33.4326C149.782 34.4775 147.873 35 145.402 35H134.914ZM141.462 22.6074H144.538C145.681 22.6074 146.56 22.373 147.175 21.9043C147.79 21.4355 148.098 20.752 148.098 19.8535C148.098 17.9297 146.862 16.9678 144.392 16.9678H141.462V22.6074ZM141.462 31.7188H145.402C147.727 31.7188 148.889 30.7422 148.889 28.7891C148.889 27.7441 148.635 26.9482 148.127 26.4014C147.619 25.8447 146.818 25.5664 145.725 25.5664H141.462V31.7188ZM161.663 35.3076C160.09 35.3076 158.743 34.9658 157.62 34.2822C156.506 33.5986 155.652 32.6514 155.056 31.4404C154.461 30.2197 154.163 28.8184 154.163 27.2363V26.9287C154.163 25.3564 154.461 23.9648 155.056 22.7539C155.652 21.5332 156.506 20.5811 157.62 19.8975C158.743 19.2041 160.081 18.8574 161.633 18.8574C163.196 18.8574 164.534 19.1992 165.647 19.8828C166.77 20.5664 167.629 21.5186 168.225 22.7393C168.821 23.9502 169.119 25.3467 169.119 26.9287V27.2363C169.119 28.8184 168.821 30.2197 168.225 31.4404C167.629 32.6514 166.775 33.5986 165.662 34.2822C164.548 34.9658 163.215 35.3076 161.663 35.3076ZM161.663 32.0264C162.766 32.0264 163.572 31.5869 164.08 30.708C164.597 29.8291 164.856 28.6719 164.856 27.2363V26.9287C164.856 25.5225 164.597 24.375 164.08 23.4863C163.562 22.5977 162.747 22.1533 161.633 22.1533C160.52 22.1533 159.71 22.5977 159.202 23.4863C158.694 24.375 158.44 25.5225 158.44 26.9287V27.2363C158.44 28.6816 158.694 29.8438 159.202 30.7227C159.71 31.5918 160.53 32.0264 161.663 32.0264ZM169.603 35V32.4365L171.639 32.1729L176.18 27.0605L171.888 21.9775L169.969 21.7285V19.1504H177.821V21.6113L176.59 21.8018L178.89 24.8193L181.19 21.8018L179.827 21.6113V19.1504H187.401V21.7285L185.628 21.9775L181.571 26.8848L186.097 32.1729L188.045 32.4365V35H179.915V32.5537L181.292 32.3633L178.846 29.3311L176.458 32.3779L177.806 32.5537V35H169.603Z" fill="white"/>
</svg>
